HIERARCHY
ROOT hip
{
  OFFSET 0 0 0
  CHANNELS 6 Xposition Yposition Zposition Zrotation Yrotation Xrotation
  JOINT abdomen
  {
    OFFSET 0 20.6881 -0.73152
    CHANNELS 3 Zrotation Xrotation Yrotation
    JOINT chest
    {
      OFFSET 0 11.7043 -0.48768
      CHANNELS 3 Zrotation Xrotation Yrotation
      JOINT neck
      {
        OFFSET 0 22.1894 -2.19456
        CHANNELS 3 Zrotation Xrotation Yrotation
        JOINT head
        {
          OFFSET -0.24384 7.07133 1.2192
          CHANNELS 3 Zrotation Xrotation Yrotation
          JOINT leftEye
          {
            OFFSET 4.14528 8.04674 8.04672
            CHANNELS 3 Zrotation Xrotation Yrotation
            End Site
            {
              OFFSET 1 0 0
            }
          }
          JOINT rightEye
          {
            OFFSET -3.6576 8.04674 8.04672
            CHANNELS 3 Zrotation Xrotation Yrotation
            End Site
            {
              OFFSET 1 0 0
            }
          }
        }
      }
      JOINT rCollar
      {
        OFFSET -2.68224 19.2634 -4.8768
        CHANNELS 3 Zrotation Xrotation Yrotation
        JOINT rShldr
        {
          OFFSET -8.77824 -1.95073 1.46304
          CHANNELS 3 Zrotation Xrotation Yrotation
          JOINT rForeArm
          {
            OFFSET -28.1742 -1.7115 0.48768
            CHANNELS 3 Zrotation Xrotation Yrotation
            JOINT rHand
            {
              OFFSET -22.5879 0.773209 7.07136
              CHANNELS 3 Zrotation Xrotation Yrotation
              JOINT rThumb1
              {
                OFFSET -1.2192 -0.487915 3.41376
                CHANNELS 3 Zrotation Xrotation Yrotation
                JOINT rThumb2
                {
                  OFFSET -3.37035 -0.52449 3.41376
                  CHANNELS 3 Zrotation Xrotation Yrotation
                  End Site
                  {
                    OFFSET -1.78271 -1.18214 1.43049
                  }
                }
              }
              JOINT rIndex1
              {
                OFFSET -7.75947 0.938293 5.60832
                CHANNELS 3 Zrotation Xrotation Yrotation
                JOINT rIndex2
                {
                  OFFSET -2.54057 -0.884171 1.56538
                  CHANNELS 3 Zrotation Xrotation Yrotation
                  End Site
                  {
                    OFFSET -1.62519 -0.234802 1.16502
                  }
                }
              }
              JOINT rMid1
              {
                OFFSET -8.24714 1.18213 3.41376
                CHANNELS 3 Zrotation Xrotation Yrotation
                JOINT rMid2
                {
                  OFFSET -3.10165 -0.590103 1.0647
                  CHANNELS 3 Zrotation Xrotation Yrotation
                  End Site
                  {
                    OFFSET -2.48547 -0.328903 0.83742
                  }
                }
              }
              JOINT rRing1
              {
                OFFSET -8.82822 0.546677 1.51678
                CHANNELS 3 Zrotation Xrotation Yrotation
                JOINT rRing2
                {
                  OFFSET -2.60934 -0.819778 -0.0198488
                  CHANNELS 3 Zrotation Xrotation Yrotation
                  End Site
                  {
                    OFFSET -2.33842 -0.294052 0.168128
                  }
                }
              }
              JOINT rPinky1
              {
                OFFSET -8.27202 -0.0477905 -0.4584
                CHANNELS 3 Zrotation Xrotation Yrotation
                JOINT rPinky2
                {
                  OFFSET -1.82734 -0.647385 -0.700984
                  CHANNELS 3 Zrotation Xrotation Yrotation
                  End Site
                  {
                    OFFSET -1.69225 -0.51767 -0.607171
                  }
                }
              }
            }
          }
        }
      }
      JOINT lCollar
      {
        OFFSET 2.68224 19.2634 -4.8768
        CHANNELS 3 Zrotation Xrotation Yrotation
        JOINT lShldr
        {
          OFFSET 8.77824 -1.95073 1.46304
          CHANNELS 3 Zrotation Xrotation Yrotation
          JOINT lForeArm
          {
            OFFSET 28.1742 -1.7115 0.48768
            CHANNELS 3 Zrotation Xrotation Yrotation
            JOINT lHand
            {
              OFFSET 22.5879 0.773209 7.07136
              CHANNELS 3 Zrotation Xrotation Yrotation
              JOINT lThumb1
              {
                OFFSET 1.2192 -0.487915 3.41376
                CHANNELS 3 Zrotation Xrotation Yrotation
                JOINT lThumb2
                {
                  OFFSET 3.37035 -0.52449 3.41376
                  CHANNELS 3 Zrotation Xrotation Yrotation
                  End Site
                  {
                    OFFSET 1.78271 -1.18214 1.43049
                  }
                }
              }
              JOINT lIndex1
              {
                OFFSET 7.75947 0.938293 5.60832
                CHANNELS 3 Zrotation Xrotation Yrotation
                JOINT lIndex2
                {
                  OFFSET 2.54057 -0.884171 1.56538
                  CHANNELS 3 Zrotation Xrotation Yrotation
                  End Site
                  {
                    OFFSET 1.62519 -0.234802 1.16502
                  }
                }
              }
              JOINT lMid1
              {
                OFFSET 8.24714 1.18213 3.41376
                CHANNELS 3 Zrotation Xrotation Yrotation
                JOINT lMid2
                {
                  OFFSET 3.10165 -0.590103 1.0647
                  CHANNELS 3 Zrotation Xrotation Yrotation
                  End Site
                  {
                    OFFSET 2.48547 -0.328903 0.83742
                  }
                }
              }
              JOINT lRing1
              {
                OFFSET 8.82822 0.546677 1.51678
                CHANNELS 3 Zrotation Xrotation Yrotation
                JOINT lRing2
                {
                  OFFSET 2.60934 -0.819778 -0.0198488
                  CHANNELS 3 Zrotation Xrotation Yrotation
                  End Site
                  {
                    OFFSET 2.33842 -0.294052 0.168128
                  }
                }
              }
              JOINT lPinky1
              {
                OFFSET 8.27202 -0.0477905 -0.4584
                CHANNELS 3 Zrotation Xrotation Yrotation
                JOINT lPinky2
                {
                  OFFSET 1.82734 -0.647385 -0.700984
                  CHANNELS 3 Zrotation Xrotation Yrotation
                  End Site
                  {
                    OFFSET 1.69225 -0.51767 -0.607171
                  }
                }
              }
            }
          }
        }
      }
    }
  }
  JOINT rButtock
  {
    OFFSET -8.77824 4.35084 1.2192
    CHANNELS 3 Zrotation Xrotation Yrotation
    JOINT rThigh
    {
      OFFSET 0 -1.70687 -2.19456
      CHANNELS 3 Zrotation Xrotation Yrotation
      JOINT rShin
      {
        OFFSET 0 -36.8199 0.73152
        CHANNELS 3 Zrotation Xrotation Yrotation
        JOINT rFoot
        {
          OFFSET 0.73152 -45.1104 -5.12064
          CHANNELS 3 Zrotation Xrotation Yrotation
          End Site
          {
            OFFSET -1.1221 -3.69964 12.103
          }
        }
      }
    }
  }
  JOINT lButtock
  {
    OFFSET 8.77824 4.35084 1.2192
    CHANNELS 3 Zrotation Xrotation Yrotation
    JOINT lThigh
    {
      OFFSET 0 -1.70687 -2.19456
      CHANNELS 3 Zrotation Xrotation Yrotation
      JOINT lShin
      {
        OFFSET 0 -36.8199 0.73152
        CHANNELS 3 Zrotation Xrotation Yrotation
        JOINT lFoot
        {
          OFFSET -0.73152 -45.1104 -5.12064
          CHANNELS 3 Zrotation Xrotation Yrotation
          End Site
          {
            OFFSET 1.1221 -3.69964 12.103
          }
        }
      }
    }
  }
}
MOTION
Frames:	4
Frame Time:	0.00833333
-169.07 85.1731 -94.2252 0.0 0.0 0.0 0.512932 -0.00341813 0.0146932 0.141686 -0.00540197 0.0245503 6.33698e-15 -1.59028e-15 9.93924e-17 1.89529e-14 -6.36111e-15 3.10601e-16 -0.0 0.0 0.0 -0.0 0.0 0.0 3.17934e-15 1.74713e-18 2.98177e-16 6.87694e-14 1.11816e-16 1.98785e-15 1.14624e-12 -3.42904e-13 2.22639e-14 1.31355e-11 3.46308e-13 1.97194e-13 3.09812e-11 5.03778e-15 4.96167e-13 5.35005e-11 6.36111e-15 8.50798e-13 3.09881e-11 6.75868e-15 4.83444e-13 7.73091 5.47488 0.417314 3.09815e-11 4.96962e-15 4.99347e-13 2.90554 0.965183 0.102902 3.09945e-11 5.46658e-15 4.93781e-13 10.2786 0.731801 0.0259123 3.0977e-11 5.56597e-15 5.02528e-13 2.22167 -0.733487 -0.20892 3.08258e-15 2.13538e-18 -1.98785e-16 6.5248e-14 -8.69683e-17 5.96354e-16 1.14843e-12 3.42307e-13 3.18055e-15 1.31262e-11 -3.49762e-13 2.41722e-13 3.09701e-11 -1.66951e-14 4.96167e-13 5.34866e-11 -2.8625e-14 8.59545e-13 3.09643e-11 -1.39149e-14 5.02528e-13 -7.73091 5.47488 -0.417314 3.09706e-11 -1.67973e-14 4.92986e-13 -2.90554 0.965183 -0.102902 3.09631e-11 -1.67973e-14 4.94576e-13 -10.2786 0.731801 -0.0259123 3.09778e-11 -1.43125e-14 4.83444e-13 -2.22167 -0.733487 0.20892 -2.03217e-16 0.0 -3.88251e-19 0.860008 -4.41146 -0.0729705 -0.00213124 2.43941 -0.0112533 -0.474443 1.97258 0.0938378 2.03217e-16 0.0 3.88251e-19 -0.0776915 -2.42095 0.0232543 0.00766781 -1.16603 0.0659997 0.465779 3.58744 -0.125216
-168.749 83.6221 -93.86 0.0376 3.0806 -0.4081 0.247714 2.10945 2.00007 -0.94592 0.439746 0.610837 3.23402 2.07792 1.95674 -3.33152 -1.60504 3.2431 -0.0 0.0 0.0 -0.0 0.0 0.0 -1.73151e-15 -2.11156e-15 -8.92163e-15 22.8301 6.23099 -1.28987 -5.58769 -2.88755 8.31554 0.0671698 -5.75436 -0.794065 2.34374e-10 -1.12502e-10 -6.9129e-11 4.05985e-10 -1.95003e-10 -1.16223e-10 2.3438e-10 -1.12501e-10 -6.91421e-11 7.73091 5.47488 0.417314 2.34374e-10 -1.12503e-10 -6.91241e-11 2.90554 0.965183 0.102902 2.34385e-10 -1.12502e-10 -6.91283e-11 10.2786 0.731801 0.0259123 2.34369e-10 -1.12502e-10 -6.91188e-11 2.22167 -0.733487 -0.20892 -1.86305e-15 -2.1101e-15 -9.36773e-15 -20.525 5.49506 0.684304 4.63872 -2.19829 -7.14436 -0.00108222 0.733414 -0.103045 1.86346e-10 9.8194e-11 9.41289e-11 3.22238e-10 1.70061e-10 1.62381e-10 1.86341e-10 9.81983e-11 9.41361e-11 -7.73091 5.47488 -0.417314 1.86347e-10 9.81944e-11 9.4123e-11 -2.90554 0.965183 -0.102902 1.8634e-10 9.81945e-11 9.41267e-11 -10.2786 0.731801 -0.0259123 1.86352e-10 9.8196e-11 9.41171e-11 -2.22167 -0.733487 0.20892 -2.03217e-16 0.0 -3.88251e-19 3.06543 -5.90441 4.7823 0.0677486 10.3282 0.224246 -2.06425 -8.04421 -7.45033 2.03217e-16 0.0 3.88251e-19 -0.904995 -5.03555 -4.71061 -0.0510386 8.02537 -0.14374 1.4616 -3.61659 6.66833
-168.816 83.6135 -93.8609 -0.2345 2.9998 -0.4044 -0.190764 4.3373 4.1101 -2.10804 0.908124 1.23138 6.49839 4.26727 4.03377 -6.65307 -3.28537 6.6799 -0.0 0.0 0.0 -0.0 0.0 0.0 -6.62183e-15 -4.57275e-15 -2.13476e-14 47.2789 12.8043 -2.70478 -10.592 -5.73646 17.1716 -0.0386496 -11.8318 -1.66028 4.51071e-10 -2.46212e-10 -1.55853e-10 7.81786e-10 -4.27031e-10 -2.627e-10 4.51075e-10 -2.46211e-10 -1.55866e-10 7.73091 5.47488 0.417314 4.5107e-10 -2.46213e-10 -1.55846e-10 2.90554 0.965183 0.102902 4.51079e-10 -2.46213e-10 -1.55849e-10 10.2786 0.731801 0.0259123 4.51064e-10 -2.46213e-10 -1.55838e-10 2.22167 -0.733487 -0.20892 -6.79038e-15 -4.57026e-15 -2.17421e-14 -42.3653 11.3014 1.42519 8.95703 -4.41253 -14.7392 0.000657443 1.5172 -0.213224 3.64745e-10 2.26509e-10 1.83157e-10 6.30791e-10 3.92274e-10 3.1586e-10 3.64741e-10 2.26515e-10 1.83165e-10 -7.73091 5.47488 -0.417314 3.64746e-10 2.2651e-10 1.83148e-10 -2.90554 0.965183 -0.102902 3.64739e-10 2.2651e-10 1.83154e-10 -10.2786 0.731801 -0.0259123 3.64749e-10 2.26511e-10 1.83146e-10 -2.22167 -0.733487 0.20892 -2.03217e-16 0.0 -3.88251e-19 5.67441 -7.41356 9.94744 0.0674551 18.6676 0.491482 -6.7064 -18.0825 -16.0867 2.03217e-16 0.0 3.88251e-19 -2.24889 -7.72228 -9.7633 -0.037023 17.7423 -0.38067 4.38222 -10.9518 14.0837
-168.845 83.6076 -93.8643 -0.3516 2.9597 -0.386 -0.723398 6.30457 6.0032 -3.14846 1.32947 1.78384 9.27496 6.20461 5.90106 -9.45077 -4.75338 9.75937 -0.0 0.0 0.0 -0.0 0.0 0.0 -1.15532e-14 -6.33818e-15 -2.73612e-14 69.3708 18.654 -4.06039 -14.3169 -7.93429 25.1722 -0.296009 -17.2495 -2.48188 6.4116e-10 -3.37517e-10 -2.08379e-10 1.11096e-09 -5.85023e-10 -3.5037e-10 6.41163e-10 -3.37515e-10 -2.08393e-10 7.73091 5.47488 0.417314 6.41158e-10 -3.37517e-10 -2.08371e-10 2.90554 0.965183 0.102902 6.41166e-10 -3.37517e-10 -2.08373e-10 10.2786 0.731801 0.0259123 6.41153e-10 -3.37517e-10 -2.08362e-10 2.22167 -0.733487 -0.20892 -1.17543e-14 -6.33456e-15 -2.77056e-14 -61.9831 16.4756 2.13101 12.3061 -6.1856 -21.5489 0.00467239 2.20021 -0.309337 4.97098e-10 2.94616e-10 2.81394e-10 8.59742e-10 5.1024e-10 4.85424e-10 4.97095e-10 2.94623e-10 2.81403e-10 -7.73091 5.47488 -0.417314 4.971e-10 2.94617e-10 2.81383e-10 -2.90554 0.965183 -0.102902 4.97093e-10 2.94617e-10 2.81391e-10 -10.2786 0.731801 -0.0259123 4.97101e-10 2.94617e-10 2.81385e-10 -2.22167 -0.733487 0.20892 -2.03217e-16 0.0 -3.88251e-19 8.2316 -8.66768 14.5863 -0.00624514 26.1041 0.762061 -13.6519 -25.9955 -24.9913 2.03217e-16 0.0 3.88251e-19 -3.85751 -10.0006 -14.3462 0.0515998 26.4069 -0.624091 8.64442 -16.9486 21.1759
